<svg xmlns="http://www.w3.org/2000/svg" width="24" height="24" viewBox="0 0 24 24"><g transform="translate(-282 -593)"><circle cx="12" cy="12" r="12" transform="translate(282 593)" fill="#ce2c2c"/><g transform="translate(-5 24)"><rect width="16" height="16" transform="translate(291 573)" fill="none"/><g transform="translate(6.677 -2046)"><path d="M0,0H11.645a0,0,0,0,1,0,0V7.97a4,4,0,0,1-4,4H4a4,4,0,0,1-4-4V0A0,0,0,0,1,0,0Z" transform="translate(286.323 2623.03)" fill="#fff"/><g transform="translate(286.323 2619)"><path d="M12,.9H0V-.9H12Z" transform="translate(0 2.5)" fill="#fff"/><rect width="4.355" height="3" transform="translate(3.823)" fill="#fff"/><rect width="2.143" height="2.143" transform="translate(3.654 0.085) rotate(45)" fill="#fff"/><rect width="2.143" height="2.143" transform="translate(8.346 0.085) rotate(45)" fill="#fff"/></g></g></g><g transform="translate(0.5)"><path d="M0,6.5A.5.5,0,0,1-.5,6V0A.5.5,0,0,1,0-.5.5.5,0,0,1,.5,0V6A.5.5,0,0,1,0,6.5Z" transform="translate(291.5 603.5)" fill="#ce2c2c"/><path d="M0,6.5A.5.5,0,0,1-.5,6V0A.5.5,0,0,1,0-.5.5.5,0,0,1,.5,0V6A.5.5,0,0,1,0,6.5Z" transform="translate(293.5 603.5)" fill="#ce2c2c"/><path d="M0,6.5A.5.5,0,0,1-.5,6V0A.5.5,0,0,1,0-.5.5.5,0,0,1,.5,0V6A.5.5,0,0,1,0,6.5Z" transform="translate(295.5 603.5)" fill="#ce2c2c"/></g></g></svg>