<svg xmlns="http://www.w3.org/2000/svg" width="16" height="16" viewBox="0 0 16 16"><g transform="translate(-24 -168)"><rect width="6" height="6" transform="translate(25 169)" fill="#fff"/><path d="M1.314,1.183a.132.132,0,0,0-.131.131v4.6a.132.132,0,0,0,.131.131h4.6a.132.132,0,0,0,.131-.131v-4.6a.132.132,0,0,0-.131-.131h-4.6M1.314,0h4.6A1.314,1.314,0,0,1,7.23,1.314v4.6A1.314,1.314,0,0,1,5.915,7.23h-4.6A1.314,1.314,0,0,1,0,5.915v-4.6A1.314,1.314,0,0,1,1.314,0Z" transform="translate(24 168.227)"/><rect width="6" height="6" transform="translate(33 169)" fill="#fff"/><path d="M1.314,1.183a.132.132,0,0,0-.131.131v4.6a.132.132,0,0,0,.131.131h4.6a.132.132,0,0,0,.131-.131v-4.6a.132.132,0,0,0-.131-.131h-4.6M1.314,0h4.6A1.314,1.314,0,0,1,7.23,1.314v4.6A1.314,1.314,0,0,1,5.915,7.23h-4.6A1.314,1.314,0,0,1,0,5.915v-4.6A1.314,1.314,0,0,1,1.314,0Z" transform="translate(32.544 168.227)"/><rect width="6" height="6" transform="translate(33 177)" fill="#fff"/><path d="M1.314,1.183a.132.132,0,0,0-.131.131v4.6a.132.132,0,0,0,.131.131h4.6a.132.132,0,0,0,.131-.131v-4.6a.132.132,0,0,0-.131-.131h-4.6M1.314,0h4.6A1.314,1.314,0,0,1,7.23,1.314v4.6A1.314,1.314,0,0,1,5.915,7.23h-4.6A1.314,1.314,0,0,1,0,5.915v-4.6A1.314,1.314,0,0,1,1.314,0Z" transform="translate(32.544 176.771)"/><rect width="5" height="5" transform="translate(25 178)" fill="#fff"/><path d="M1.314,1.183a.132.132,0,0,0-.131.131v4.6a.132.132,0,0,0,.131.131h4.6a.132.132,0,0,0,.131-.131v-4.6a.132.132,0,0,0-.131-.131h-4.6M1.314,0h4.6A1.314,1.314,0,0,1,7.23,1.314v4.6A1.314,1.314,0,0,1,5.915,7.23h-4.6A1.314,1.314,0,0,1,0,5.915v-4.6A1.314,1.314,0,0,1,1.314,0Z" transform="translate(24 176.771)"/><rect width="16" height="16" transform="translate(24 168)" fill="none"/></g></svg>