<svg xmlns="http://www.w3.org/2000/svg" width="16" height="16" viewBox="0 0 16 16"><g transform="translate(3522 2435)"><g transform="translate(-3521 -2433)"><path d="M1864.773,436.352h-13.2v-4.6a.6.6,0,1,1,1.2,0v3.4h10.8v-3.4a.6.6,0,1,1,1.2,0Z" transform="translate(-1851.573 -423.9)"/><g transform="translate(3.333)"><path d="M.667,7.852C.3,7.852,0,7.638,0,7.374V.478C0,.214.3,0,.667,0s.667.214.667.478v6.9C1.333,7.638,1.035,7.852.667,7.852Z" transform="translate(3.933 7.852) rotate(180)"/><path d="M-.3,2.967a.6.6,0,0,1-.424-.176.6.6,0,0,1,0-.849L1.942-.724a.6.6,0,0,1,.849,0,.6.6,0,0,1,0,.849L.124,2.791A.6.6,0,0,1-.3,2.967Z" transform="translate(3.567 5.3)"/><path d="M2.367,2.967a.6.6,0,0,1-.424-.176L-.724.124a.6.6,0,0,1,0-.849.6.6,0,0,1,.849,0L2.791,1.942a.6.6,0,0,1-.424,1.024Z" transform="translate(0.9 5.3)"/></g></g><rect width="16" height="16" transform="translate(-3522 -2435)" fill="none"/></g></svg>