<svg xmlns="http://www.w3.org/2000/svg" width="16" height="16" viewBox="0 0 16 16"><g transform="translate(-32 -180.223)"><path d="M12.246,13.345a6.038,6.038,0,0,1-1.105.867,8.521,8.521,0,0,1,3.315,4.9H1.533A8.247,8.247,0,0,1,4.849,14.2a6.005,6.005,0,0,1-1.105-.875A9.805,9.805,0,0,0,0,20.443H16a10.016,10.016,0,0,0-3.754-7.1Z" transform="translate(32 175.78)"/><path d="M4.575,1.2a3.43,3.43,0,0,0-3.4,3.453A3.43,3.43,0,0,0,4.575,8.1a3.43,3.43,0,0,0,3.4-3.453A3.43,3.43,0,0,0,4.575,1.2m0-1.2A4.612,4.612,0,0,1,9.149,4.649,4.612,4.612,0,0,1,4.575,9.3,4.612,4.612,0,0,1,0,4.649,4.612,4.612,0,0,1,4.575,0Z" transform="translate(35.5 180.223)"/></g></svg>