<svg xmlns="http://www.w3.org/2000/svg" width="56" height="56" viewBox="0 0 56 56"><g transform="translate(-554 -291)"><circle cx="28" cy="28" r="28" transform="translate(554 291)" fill="#fff"/><path d="M28,2A26.007,26.007,0,0,0,17.88,51.958,26.007,26.007,0,0,0,38.12,4.042,25.835,25.835,0,0,0,28,2m0-2A28,28,0,1,1,0,28,28,28,0,0,1,28,0Z" transform="translate(554 291)" fill="#fdd000"/><circle cx="20" cy="20" r="20" transform="translate(562 299)" fill="#fdd000"/><path d="M20,2A18,18,0,0,0,7.272,32.728,18,18,0,1,0,32.728,7.272,17.882,17.882,0,0,0,20,2m0-2A20,20,0,1,1,0,20,20,20,0,0,1,20,0Z" transform="translate(562 299)" fill="#fdd000"/></g></svg>