<svg xmlns="http://www.w3.org/2000/svg" width="106" height="39" viewBox="0 0 106 39"><text transform="translate(0 36)" fill="#fdd000" font-size="10" font-family="NotoSansJP-Bold, Noto Sans JP" font-weight="700"><tspan x="0" y="0">Step1</tspan></text><text transform="translate(77 36)" font-size="10" font-family="NotoSansJP-Bold, Noto Sans JP" font-weight="700"><tspan x="0" y="0">Step2</tspan></text><line x2="2" y2="1.5" transform="translate(100.5 12)" fill="none" stroke="#e9e9e9" stroke-width="1"/><g transform="translate(-380 -159)"><circle cx="12" cy="12" r="12" transform="translate(458 159)" fill="#fdd000"/><g transform="translate(811 713)"><g transform="translate(-390.448 -550)"><path d="M66.452,108.275a2.2,2.2,0,1,0-2.2-2.2A2.2,2.2,0,0,0,66.452,108.275Zm0-3.705a1.51,1.51,0,1,1-1.509,1.51A1.511,1.511,0,0,1,66.452,104.57Z" transform="translate(-20.218 -100.933)"/><path d="M233.768,5.858a2.929,2.929,0,1,0-2.929-2.929A2.933,2.933,0,0,0,233.768,5.858Zm0-5.173a2.244,2.244,0,1,1-2.243,2.243A2.246,2.246,0,0,1,233.768.686Z" transform="translate(-182.067)"/><path d="M47.877,234.541h7.649v-5.558a3.736,3.736,0,0,0-3.823-2.555,3.927,3.927,0,0,0-3.577,1.924l-.021-.016a3.052,3.052,0,0,0-1.872-.589,3.012,3.012,0,0,0-1.966.668,2.605,2.605,0,0,0-.544.613,1.937,1.937,0,0,0-.265.619l-.008.04v3.933h4.3v-.686H44.134v-3.167a1.284,1.284,0,0,1,.167-.373,1.976,1.976,0,0,1,.689-.65,2.467,2.467,0,0,1,1.246-.311,2.38,2.38,0,0,1,1.456.452l.036.026.351-.467a2.367,2.367,0,0,0-.2.55Zm3.824-7.428a3.141,3.141,0,0,1,3.139,1.949v4.793H48.562l0-4.782A3.136,3.136,0,0,1,51.7,227.114Z" transform="translate(0 -219.995)"/></g><rect width="20" height="20" transform="translate(-350 -553)" fill="none"/></g></g><g transform="translate(-378 -150)"><g transform="translate(380 150)" fill="none" stroke="#fdd000" stroke-linecap="round" stroke-linejoin="round" stroke-width="1"><circle cx="12" cy="12" r="12" stroke="none"/><circle cx="12" cy="12" r="11.5" fill="none"/></g><g transform="translate(9286 755)"><g transform="translate(-8900 -601)" fill="none" stroke="#fdd000" stroke-width="0.75"><rect width="13" height="16" rx="1" stroke="none"/><rect x="0.375" y="0.375" width="12.25" height="15.25" rx="0.625" fill="none"/></g><line x2="6" transform="translate(-8896.5 -596.505)" fill="none" stroke="#fdd000" stroke-linecap="round" stroke-width="0.75"/><rect width="20" height="20" transform="translate(-8904 -603)" fill="none"/><line x2="6" transform="translate(-8896.5 -593.505)" fill="none" stroke="#fdd000" stroke-linecap="round" stroke-width="0.75"/><line x2="6" transform="translate(-8896.5 -590.505)" fill="none" stroke="#fdd000" stroke-linecap="round" stroke-width="0.75"/></g></g><line x2="52" transform="translate(26 12)" fill="none" stroke="#fdd000" stroke-width="1"/></svg>