<svg xmlns="http://www.w3.org/2000/svg" width="80" height="80" viewBox="0 0 80 80"><rect width="80" height="80" fill="none"/><circle cx="40" cy="40" r="40" fill="#00aebb"/><g transform="translate(19.5 26.5)"><path d="M14,17a2.991,2.991,0,0,1-2.121-.879l-14-14a3,3,0,0,1,0-4.243,3,3,0,0,1,4.243,0l14,14A3,3,0,0,1,14,17Z" transform="translate(0 13)" fill="#fff"/><path d="M0,30a2.991,2.991,0,0,1-2.121-.879,3,3,0,0,1,0-4.243l27-27a3,3,0,0,1,4.243,0,3,3,0,0,1,0,4.243l-27,27A2.991,2.991,0,0,1,0,30Z" transform="translate(14)" fill="#fff"/></g></svg>