<svg xmlns="http://www.w3.org/2000/svg" width="40" height="40" viewBox="0 0 40 40"><g transform="translate(-650 -299)"><circle cx="20" cy="20" r="20" transform="translate(650 299)" fill="#fff"/><path d="M20,2A18,18,0,0,0,7.272,32.728,18,18,0,1,0,32.728,7.272,17.882,17.882,0,0,0,20,2m0-2A20,20,0,1,1,0,20,20,20,0,0,1,20,0Z" transform="translate(650 299)" fill="#fdd000"/><circle cx="13" cy="13" r="13" transform="translate(657 306)" fill="#fdd000"/><path d="M13,2A11,11,0,0,0,5.222,20.778,11,11,0,1,0,20.778,5.222,10.928,10.928,0,0,0,13,2m0-2A13,13,0,1,1,0,13,13,13,0,0,1,13,0Z" transform="translate(657 306)" fill="#fdd000"/></g></svg>