<svg xmlns="http://www.w3.org/2000/svg" width="24" height="24" viewBox="0 0 24 24"><g transform="translate(-730 -307)"><circle cx="12" cy="12" r="12" transform="translate(730 307)" fill="#fff"/><path d="M12,2A10,10,0,1,0,22,12,10.011,10.011,0,0,0,12,2m0-2A12,12,0,1,1,0,12,12,12,0,0,1,12,0Z" transform="translate(730 307)" fill="#fdd000"/><circle cx="6" cy="6" r="6" transform="translate(736 313)" fill="#fdd000"/><path d="M6,2a4,4,0,1,0,4,4A4,4,0,0,0,6,2M6,0A6,6,0,1,1,0,6,6,6,0,0,1,6,0Z" transform="translate(736 313)" fill="#fdd000"/></g></svg>