<svg xmlns="http://www.w3.org/2000/svg" width="72" height="72" viewBox="0 0 72 72"><g transform="translate(-442 -283)"><circle cx="36" cy="36" r="36" transform="translate(442 283)" fill="#fff"/><path d="M36,2A34.009,34.009,0,0,0,22.766,67.329,34.009,34.009,0,0,0,49.234,4.671,33.785,33.785,0,0,0,36,2m0-2A36,36,0,1,1,0,36,36,36,0,0,1,36,0Z" transform="translate(442 283)" fill="#fdd000"/><circle cx="28" cy="28" r="28" transform="translate(450 291)" fill="#fdd000"/><path d="M28,2A26.007,26.007,0,0,0,17.88,51.958,26.007,26.007,0,0,0,38.12,4.042,25.835,25.835,0,0,0,28,2m0-2A28,28,0,1,1,0,28,28,28,0,0,1,28,0Z" transform="translate(450 291)" fill="#fdd000"/></g></svg>