<svg xmlns="http://www.w3.org/2000/svg" width="24" height="24" viewBox="0 0 24 24"><g transform="translate(-622 -162)"><g transform="translate(242 12)"><circle cx="12" cy="12" r="12" transform="translate(380 150)" fill="#13cfdd"/></g><g transform="translate(627 137.845)"><path d="M11.664,42.239H1.06V34.3H5.143V30.215h6.521v1.045l1.06-1.018V29.155H5.143L1.06,33.237,0,34.3v9H12.724V37.057l-1.06,1.1Z"/><path d="M204.389,65.763l-1.6-1.6a.361.361,0,0,0-.51,0l-6.756,6.488a.361.361,0,0,0-.09.15l-.817,2.685a.361.361,0,0,0,.45.45l2.771-.843,6.552-6.82A.361.361,0,0,0,204.389,65.763Zm-8.25,7.188-.526-.575.365-1.2.908.489.489.909Zm7.235-7.443L197.617,71.3l-.366-.366,5.793-5.756.329.329Z" transform="translate(-188.532 -33.814)"/></g></g></svg>
