<svg xmlns="http://www.w3.org/2000/svg" width="88" height="35" viewBox="0 0 88 35"><g transform="translate(6943 5955)"><g transform="translate(-35.573 5.844)"><path d="M274.691,19.445V29.629a.246.246,0,0,1-.435.167l-3.114-3.778a.738.738,0,0,0-1.149,0L266.879,29.8a.246.246,0,0,1-.436-.167V19.445h-2.676V33.812a.771.771,0,0,0,.756.785h1.572a.745.745,0,0,0,.575-.275l3.709-4.5a.241.241,0,0,1,.376,0l3.71,4.5a.744.744,0,0,0,.575.275h1.572a.771.771,0,0,0,.756-.785V19.445Z" transform="translate(-7143.516 -5979.867)" fill="#1a1311"/><path d="M216.23,19.453h7.085v2.415H218.4a.25.25,0,0,0-.245.255v3.55h3.267v2.415h-3.267v3.846a.25.25,0,0,0,.245.255h5.067V34.6H216.23a.764.764,0,0,1-.75-.778V20.232a.765.765,0,0,1,.75-.779" transform="translate(-7107.141 -5979.873)" fill="#1a1311"/><path d="M160,19.453v9.678a.247.247,0,0,1-.461.134l-5.508-9.438a.741.741,0,0,0-.638-.373h-1.532a.761.761,0,0,0-.746.775V34.605h2.633V24.761a.247.247,0,0,1,.461-.135l5.661,9.609a.741.741,0,0,0,.636.37h1.4a.761.761,0,0,0,.746-.775V19.453Z" transform="translate(-7058.539 -5979.873)" fill="#1a1311"/><path d="M476.511,19.453H483.6v2.415h-4.913a.25.25,0,0,0-.245.255v3.55H481.7v2.415h-3.267v3.846a.25.25,0,0,0,.245.255h5.067V34.6h-7.239a.764.764,0,0,1-.75-.778V20.232a.765.765,0,0,1,.75-.779" transform="translate(-7303.669 -5979.873)" fill="#1a1311"/><path d="M420.278,19.453v9.678a.247.247,0,0,1-.461.134l-5.508-9.438a.741.741,0,0,0-.638-.373h-1.532a.761.761,0,0,0-.746.775V34.605h2.633V24.761a.247.247,0,0,1,.461-.135l5.661,9.609a.741.741,0,0,0,.636.37h1.4a.761.761,0,0,0,.746-.775V19.453Z" transform="translate(-7254.456 -5979.873)" fill="#1a1311"/><path d="M366.512,17.653a1.315,1.315,0,0,1,.905,1.284c.044,1.387-.77,1.51-.77,1.51a5.1,5.1,0,0,1,4.424,4.2,5.239,5.239,0,0,1-3.978,6.162,1.332,1.332,0,0,0-1.055,1.616,1.31,1.31,0,0,0,1.575,1.106A8.011,8.011,0,0,0,373.7,24.1a7.839,7.839,0,0,0-7.184-6.451" transform="translate(-7220.8 -5978.497)" fill="#00a0ae"/><path d="M340.927,33.992a1.315,1.315,0,0,1-.9-1.284c-.044-1.387.77-1.51.77-1.51a5.1,5.1,0,0,1-4.424-4.2,5.239,5.239,0,0,1,3.978-6.162,1.332,1.332,0,0,0,1.055-1.616,1.31,1.31,0,0,0-1.575-1.106,8.011,8.011,0,0,0-6.083,9.423,7.839,7.839,0,0,0,7.184,6.451" transform="translate(-7196.328 -5978.836)" fill="#ffc400"/></g><rect width="88" height="15" transform="translate(-6943 -5935)" fill="#f9d220"/><text transform="translate(-6919 -5924)" fill="#1a1311" font-size="8" font-family="NotoSansJP-Bold, Noto Sans JP" font-weight="700"><tspan x="0" y="0">360度サーベイ</tspan></text></g></svg>